<svg width="35" height="56" viewBox="0 0 35 56" fill="none" xmlns="http://www.w3.org/2000/svg">
<path fill-rule="evenodd" clip-rule="evenodd" d="M0.80415 24.7626C-0.226624 23.0941 1.58603 21.3471 3.5425 21.3471H4.43693C5.34042 21.3471 6.21289 22.0739 6.6283 22.879C6.97391 23.569 7.75153 24.3418 8.96117 25.1975C9.77582 25.0319 10.8497 24.949 12.1827 24.949C15.2192 24.949 17.6631 25.5011 19.5146 26.6051C21.3019 27.6583 22.2149 29.4116 22.2535 31.865C21.7855 32.1178 21.3563 32.4154 20.9659 32.758C19.4769 34.0648 18.7323 35.9876 18.7323 38.5265C18.7323 41.0654 19.4769 42.9882 20.9659 44.295C21.2227 44.5203 21.4963 44.7262 21.7867 44.9127C21.5357 45.229 21.2473 45.516 20.9217 45.7739C21.8104 46.2155 22.551 46.8641 23.1435 47.7197C23.736 48.603 24.0322 49.5828 24.0322 50.6592C24.0322 51.6529 23.81 52.5499 23.3657 53.3503C22.9213 54.1783 22.3289 54.827 21.5883 55.2962C20.823 55.7654 19.996 56 19.1073 56H8.22057C6.73939 56 5.36929 55.7102 4.11028 55.1306C2.85128 54.551 1.85148 53.6953 1.11089 52.5637C0.370296 51.4321 0 50.0796 0 48.5064C0 46.3811 0.555441 44.6837 1.66633 43.414C2.77722 42.1444 4.41887 41.5096 6.59127 41.5096H13.2566C14.1206 41.5096 14.7254 41.3992 15.071 41.1783C15.4167 40.9299 15.5895 40.6125 15.5895 40.2261C15.5895 39.4257 14.8118 39.0255 13.2566 39.0255H10.4423C8.09714 39.0255 6.14692 38.4321 4.59167 37.2452C3.01174 36.0584 2.22177 34.3057 2.22177 31.9873C2.22177 31.0764 2.43161 30.2208 2.85128 29.4204C3.24626 28.5924 3.8017 27.8747 4.51761 27.2675C3.01174 26.8259 1.88851 26.1497 1.14792 25.2389C1.02316 25.0904 0.90857 24.9316 0.80415 24.7626ZM14.2564 29.9586C13.738 29.4894 13.0714 29.2548 12.2568 29.2548C11.3681 29.2548 10.6769 29.4894 10.1831 29.9586C9.66473 30.4002 9.40552 31.0764 9.40552 31.9873C9.40552 32.8981 9.66473 33.5881 10.1831 34.0573C10.6769 34.4989 11.3681 34.7197 12.2568 34.7197C13.1455 34.7197 13.8367 34.4989 14.3305 34.0573C14.7995 33.5881 15.034 32.8981 15.034 31.9873C15.034 31.104 14.7748 30.4278 14.2564 29.9586ZM16.5152 47.8025C16.1449 47.4713 15.6759 47.3057 15.1081 47.3057H9.33146C8.76367 47.3057 8.29463 47.4851 7.92433 47.844C7.55404 48.2028 7.36889 48.6996 7.36889 49.3344C7.36889 49.9692 7.56638 50.466 7.96136 50.8248C8.33166 51.2113 8.78836 51.4045 9.33146 51.4045H15.1081C15.6512 51.4045 16.1079 51.2113 16.4782 50.8248C16.8485 50.4384 17.0336 49.9278 17.0336 49.293C17.0336 48.6582 16.8608 48.1614 16.5152 47.8025Z" fill="#1738DC"/>
<path d="M28.0142 32.1397C30.1865 32.1397 31.89 32.6949 33.1246 33.8055C34.3749 34.9004 35 36.5036 35 38.6152C35 40.7268 34.3749 42.3378 33.1246 43.4484C31.89 44.5433 30.1865 45.0907 28.0142 45.0907C25.8419 45.0907 24.1385 44.5433 22.9039 43.4484C21.6692 42.3535 21.0519 40.7424 21.0519 38.6152C21.0519 36.488 21.6692 34.8769 22.9039 33.782C24.1385 32.6871 25.8419 32.1397 28.0142 32.1397ZM28.0142 35.307C26.4827 35.307 25.7169 36.1908 25.7169 37.9583V39.2956C25.7169 41.0474 26.4827 41.9233 28.0142 41.9233C29.5614 41.9233 30.335 41.0474 30.335 39.2956V37.9583C30.335 36.1908 29.5614 35.307 28.0142 35.307Z" fill="#1738DC"/>
<path d="M0.854474 1.59065C0.854474 1.14291 1.00268 0.765868 1.29909 0.45952C1.60736 0.153173 2.01048 0 2.50845 0C3.00642 0 3.40361 0.153173 3.70003 0.45952C4.00829 0.765868 4.16243 1.14291 4.16243 1.59065C4.16243 2.03839 4.00829 2.41543 3.70003 2.72178C3.40361 3.02812 3.00642 3.1813 2.50845 3.1813C2.01048 3.1813 1.60736 3.02812 1.29909 2.72178C1.00268 2.41543 0.854474 2.03839 0.854474 1.59065ZM4.02015 12.5485C3.88973 12.572 3.6941 12.6015 3.43326 12.6368C3.18427 12.684 2.92936 12.7075 2.66851 12.7075C2.40767 12.7075 2.17054 12.6898 1.95713 12.6545C1.75557 12.6191 1.58365 12.5485 1.44137 12.4424C1.29909 12.3364 1.18646 12.195 1.10346 12.0182C1.03232 11.8297 0.996752 11.5882 0.996752 11.2936V4.10034C1.12717 4.07677 1.31688 4.04732 1.56586 4.01197C1.8267 3.96484 2.08755 3.94127 2.34839 3.94127C2.60923 3.94127 2.84043 3.95895 3.04199 3.9943C3.25541 4.02964 3.43326 4.10034 3.57553 4.20638C3.71781 4.31243 3.82452 4.45971 3.89566 4.64823C3.97865 4.82497 4.02015 5.06062 4.02015 5.35518V12.5485Z" fill="#1738DC"/>
<path d="M9.64415 10.6573C9.84571 10.6573 10.0651 10.6397 10.3022 10.6043C10.5512 10.5572 10.7349 10.4983 10.8535 10.4276V9.01368L9.57301 9.11972C9.24103 9.14328 8.96833 9.21398 8.75491 9.33181C8.54149 9.44963 8.43479 9.62637 8.43479 9.86202C8.43479 10.0977 8.52371 10.2921 8.70156 10.4453C8.89126 10.5867 9.20546 10.6573 9.64415 10.6573ZM9.50187 3.71151C10.1421 3.71151 10.7231 3.77632 11.2448 3.90593C11.7783 4.03553 12.2289 4.23584 12.5964 4.50684C12.9758 4.76605 13.2663 5.10186 13.4679 5.51425C13.6694 5.91486 13.7702 6.39205 13.7702 6.94583V10.9048C13.7702 11.2111 13.6813 11.4645 13.5034 11.6648C13.3374 11.8533 13.1359 12.0182 12.8987 12.1596C12.1281 12.6191 11.0432 12.8489 9.64415 12.8489C9.01575 12.8489 8.44664 12.79 7.93681 12.6722C7.43884 12.5543 7.00608 12.3776 6.63853 12.142C6.28284 11.9063 6.00421 11.6058 5.80265 11.2406C5.61295 10.8753 5.51809 10.4512 5.51809 9.96807C5.51809 9.15507 5.76115 8.53059 6.24727 8.09463C6.73338 7.65868 7.48627 7.38768 8.50592 7.28164L10.8357 7.0342V6.91048C10.8357 6.56879 10.6816 6.32725 10.3733 6.18586C10.0769 6.03268 9.64415 5.9561 9.07504 5.9561C8.62449 5.9561 8.1858 6.00323 7.75897 6.09749C7.33213 6.19175 6.9468 6.30957 6.60296 6.45096C6.44883 6.34492 6.31841 6.18586 6.2117 5.97377C6.10499 5.7499 6.05164 5.52014 6.05164 5.28449C6.05164 4.97814 6.12277 4.7366 6.26505 4.55986C6.41919 4.37134 6.65039 4.21227 6.95866 4.08266C7.30249 3.95306 7.70561 3.8588 8.16802 3.79988C8.64227 3.74097 9.08689 3.71151 9.50187 3.71151Z" fill="#1738DC"/>
<path d="M21.0965 7.12257C21.0965 6.75731 20.9898 6.4922 20.7764 6.32725C20.5748 6.15051 20.2962 6.06214 19.9405 6.06214C19.7034 6.06214 19.4663 6.0916 19.2291 6.15051C19.0039 6.20942 18.8082 6.29779 18.6422 6.41562V12.5485C18.5237 12.5838 18.334 12.6191 18.0731 12.6545C17.8241 12.6898 17.5633 12.7075 17.2906 12.7075C17.0298 12.7075 16.7926 12.6898 16.5792 12.6545C16.3776 12.6191 16.2057 12.5485 16.0634 12.4424C15.9212 12.3364 15.8085 12.195 15.7255 12.0182C15.6544 11.8297 15.6188 11.5882 15.6188 11.2936V5.99144C15.6188 5.67331 15.684 5.4141 15.8145 5.21379C15.9567 5.01349 16.1464 4.83086 16.3836 4.6659C16.7867 4.38312 17.2906 4.15336 17.8953 3.97662C18.5118 3.79988 19.1936 3.71151 19.9405 3.71151C21.2803 3.71151 22.3118 4.00608 23.0351 4.59521C23.7583 5.17255 24.1199 5.97966 24.1199 7.01653V12.5485C24.0014 12.5838 23.8117 12.6191 23.5508 12.6545C23.3018 12.6898 23.041 12.7075 22.7683 12.7075C22.5074 12.7075 22.2703 12.6898 22.0569 12.6545C21.8553 12.6191 21.6834 12.5485 21.5411 12.4424C21.3989 12.3364 21.2862 12.195 21.2032 12.0182C21.1321 11.8297 21.0965 11.5882 21.0965 11.2936V7.12257Z" fill="#1738DC"/>
</svg>
